<mxfile host="Electron" modified="2023-09-17T00:46:12.429Z" agent="Mozilla/5.0 (Windows NT 10.0; Win64; x64) AppleWebKit/537.36 (KHTML, like Gecko) draw.io/21.5.1 Chrome/112.0.5615.204 Electron/24.6.0 Safari/537.36" etag="e8tqXAqPniv46m1yaVc7" version="21.5.1" type="device">
  <diagram name="Page-1" id="jlWg30tiVIV7ITa_rjVJ">
    <mxGraphModel dx="652" dy="720" grid="1" gridSize="10" guides="1" tooltips="1" connect="1" arrows="1" fold="1" page="1" pageScale="1" pageWidth="827" pageHeight="1169" math="0" shadow="0">
      <root>
        <mxCell id="0" />
        <mxCell id="1" parent="0" />
        <mxCell id="BuBP6hz3hrAWC6XMbjHW-2" value="AWS CloudFormation - Stack (Root stack)" style="sketch=0;outlineConnect=0;fontColor=#232F3E;gradientColor=none;fillColor=#13B927;strokeColor=none;dashed=0;verticalLabelPosition=top;verticalAlign=bottom;align=center;html=1;fontSize=12;fontStyle=0;aspect=fixed;pointerEvents=1;shape=mxgraph.aws4.stack;labelPosition=center;" vertex="1" parent="1">
          <mxGeometry x="200" y="170" width="78" height="76" as="geometry" />
        </mxCell>
        <mxCell id="BuBP6hz3hrAWC6XMbjHW-15" style="edgeStyle=orthogonalEdgeStyle;rounded=0;orthogonalLoop=1;jettySize=auto;html=1;" edge="1" parent="1" source="BuBP6hz3hrAWC6XMbjHW-3" target="BuBP6hz3hrAWC6XMbjHW-2">
          <mxGeometry relative="1" as="geometry">
            <Array as="points">
              <mxPoint x="159" y="208" />
            </Array>
          </mxGeometry>
        </mxCell>
        <mxCell id="BuBP6hz3hrAWC6XMbjHW-3" value="Nested stack" style="sketch=0;outlineConnect=0;fontColor=#232F3E;gradientColor=none;fillColor=#A3A3A3;strokeColor=none;dashed=0;verticalLabelPosition=bottom;verticalAlign=top;align=center;html=1;fontSize=12;fontStyle=0;aspect=fixed;pointerEvents=1;shape=mxgraph.aws4.stack;" vertex="1" parent="1">
          <mxGeometry x="120" y="290" width="78" height="76" as="geometry" />
        </mxCell>
        <mxCell id="BuBP6hz3hrAWC6XMbjHW-14" style="edgeStyle=orthogonalEdgeStyle;rounded=0;orthogonalLoop=1;jettySize=auto;html=1;" edge="1" parent="1" source="BuBP6hz3hrAWC6XMbjHW-7" target="BuBP6hz3hrAWC6XMbjHW-2">
          <mxGeometry relative="1" as="geometry">
            <Array as="points">
              <mxPoint x="320" y="208" />
            </Array>
          </mxGeometry>
        </mxCell>
        <mxCell id="BuBP6hz3hrAWC6XMbjHW-7" value="Nested stack" style="sketch=0;outlineConnect=0;fontColor=#232F3E;gradientColor=none;fillColor=#A3A3A3;strokeColor=none;dashed=0;verticalLabelPosition=middle;verticalAlign=middle;align=left;html=1;fontSize=12;fontStyle=0;aspect=fixed;pointerEvents=1;shape=mxgraph.aws4.stack;labelPosition=right;spacingBottom=-1;spacingLeft=5;" vertex="1" parent="1">
          <mxGeometry x="278" y="300" width="78" height="76" as="geometry" />
        </mxCell>
        <mxCell id="BuBP6hz3hrAWC6XMbjHW-12" style="edgeStyle=orthogonalEdgeStyle;rounded=0;orthogonalLoop=1;jettySize=auto;html=1;" edge="1" parent="1" source="BuBP6hz3hrAWC6XMbjHW-8" target="BuBP6hz3hrAWC6XMbjHW-9">
          <mxGeometry relative="1" as="geometry">
            <Array as="points">
              <mxPoint x="260" y="498" />
            </Array>
          </mxGeometry>
        </mxCell>
        <mxCell id="BuBP6hz3hrAWC6XMbjHW-8" value="Nested stack" style="sketch=0;outlineConnect=0;fontColor=#232F3E;gradientColor=none;fillColor=#A3A3A3;strokeColor=none;dashed=0;verticalLabelPosition=bottom;verticalAlign=top;align=center;html=1;fontSize=12;fontStyle=0;aspect=fixed;pointerEvents=1;shape=mxgraph.aws4.stack;" vertex="1" parent="1">
          <mxGeometry x="230" y="585" width="78" height="76" as="geometry" />
        </mxCell>
        <mxCell id="BuBP6hz3hrAWC6XMbjHW-13" style="edgeStyle=orthogonalEdgeStyle;rounded=0;orthogonalLoop=1;jettySize=auto;html=1;" edge="1" parent="1" source="BuBP6hz3hrAWC6XMbjHW-9" target="BuBP6hz3hrAWC6XMbjHW-7">
          <mxGeometry relative="1" as="geometry" />
        </mxCell>
        <mxCell id="BuBP6hz3hrAWC6XMbjHW-9" value="Nested stack" style="sketch=0;outlineConnect=0;fontColor=#232F3E;gradientColor=none;fillColor=#A3A3A3;strokeColor=none;dashed=0;verticalLabelPosition=bottom;verticalAlign=top;align=center;html=1;fontSize=12;fontStyle=0;aspect=fixed;pointerEvents=1;shape=mxgraph.aws4.stack;" vertex="1" parent="1">
          <mxGeometry x="308" y="460" width="78" height="76" as="geometry" />
        </mxCell>
        <mxCell id="BuBP6hz3hrAWC6XMbjHW-11" style="edgeStyle=orthogonalEdgeStyle;rounded=0;orthogonalLoop=1;jettySize=auto;html=1;" edge="1" parent="1" source="BuBP6hz3hrAWC6XMbjHW-10" target="BuBP6hz3hrAWC6XMbjHW-9">
          <mxGeometry relative="1" as="geometry">
            <Array as="points">
              <mxPoint x="430" y="498" />
            </Array>
          </mxGeometry>
        </mxCell>
        <mxCell id="BuBP6hz3hrAWC6XMbjHW-10" value="Nested stack" style="sketch=0;outlineConnect=0;fontColor=#232F3E;gradientColor=none;fillColor=#A3A3A3;strokeColor=none;dashed=0;verticalLabelPosition=bottom;verticalAlign=top;align=center;html=1;fontSize=12;fontStyle=0;aspect=fixed;pointerEvents=1;shape=mxgraph.aws4.stack;" vertex="1" parent="1">
          <mxGeometry x="386" y="585" width="78" height="76" as="geometry" />
        </mxCell>
      </root>
    </mxGraphModel>
  </diagram>
</mxfile>
